<mxfile host="app.diagrams.net" modified="2024-07-08T12:11:57.391Z" agent="Mozilla/5.0 (Macintosh; Intel Mac OS X 10.15; rv:126.0) Gecko/20100101 Firefox/126.0" etag="lDBC9_bQnorCz9vv6gcB" version="24.6.4" type="github" pages="3">
  <diagram name="Page-1" id="LXVa4mQVWGRKJQZ5Ejbx">
    <mxGraphModel>
      <root>
        <mxCell id="0" />
        <mxCell id="1" parent="0" />
      </root>
    </mxGraphModel>
  </diagram>
  <diagram id="FAiyLZoty-whUXqiBdeG" name="Week 2 : Fine-tuning and evaluating large language models">
    <mxGraphModel dx="2074" dy="1182" grid="1" gridSize="10" guides="1" tooltips="1" connect="1" arrows="1" fold="1" page="1" pageScale="1" pageWidth="1100" pageHeight="850" math="0" shadow="0">
      <root>
        <mxCell id="0" />
        <mxCell id="1" parent="0" />
        <mxCell id="G2og5KNSgikm_XLiq1vp-18" value="" style="rounded=1;whiteSpace=wrap;html=1;fillColor=#f5f5f5;strokeColor=#666666;fontColor=#333333;" vertex="1" parent="1">
          <mxGeometry x="345" y="210" width="245" height="300" as="geometry" />
        </mxCell>
        <mxCell id="V0c3voEDvwPtRk2GQ4Yh-1" value="&lt;div align=&quot;justify&quot; class=&quot;cds-1 css-0 cds-3 cds-grid-item cds-48&quot;&gt;&lt;div class=&quot;cds-1 css-0 cds-2 cds-3 cds-grid-item cds-48&quot;&gt;&lt;div class=&quot;cds-1 css-0 cds-3 cds-grid-item&quot;&gt;&lt;h1 class=&quot;css-ibyw7c&quot; data-testid=&quot;instructor-note-body&quot;&gt;&lt;font data-font-src=&quot;https://fonts.googleapis.com/css?family=Rubik&quot; face=&quot;Rubik&quot;&gt;Fine-tuning and evaluating large language models&lt;/font&gt;&lt;/h1&gt;&lt;div&gt;&lt;h3 tabindex=&quot;-1&quot; class=&quot;css-13hhzop&quot;&gt;&lt;font data-font-src=&quot;https://fonts.googleapis.com/css?family=Rubik&quot; face=&quot;Rubik&quot;&gt;Learning Objectives&lt;/font&gt;&lt;/h3&gt;&lt;hr aria-hidden=&quot;true&quot; class=&quot;cds-164 cds-Divider-dark css-yc753g&quot;&gt;&lt;ul&gt;&lt;li data-collapsible=&quot;false&quot;&gt;&lt;font face=&quot;Rubik&quot; data-font-src=&quot;https://fonts.googleapis.com/css?family=Rubik&quot;&gt;Describe how fine-tuning with instructions using prompt datasets can improve performance on one or more tasks&lt;/font&gt;&lt;/li&gt;&lt;li data-collapsible=&quot;false&quot;&gt;&lt;font data-font-src=&quot;https://fonts.googleapis.com/css?family=Rubik&quot; face=&quot;Rubik&quot;&gt;Define catastrophic forgetting and explain techniques that can be used to overcome it&lt;/font&gt;&lt;/li&gt;&lt;li data-collapsible=&quot;false&quot;&gt;&lt;font data-font-src=&quot;https://fonts.googleapis.com/css?family=Rubik&quot; face=&quot;Rubik&quot;&gt;Define the term Parameter-efficient Fine Tuning (PEFT)&lt;/font&gt;&lt;/li&gt;&lt;li data-collapsible=&quot;true&quot;&gt;&lt;font data-font-src=&quot;https://fonts.googleapis.com/css?family=Rubik&quot; face=&quot;Rubik&quot;&gt;Explain how PEFT decreases computational cost and overcomes catastrophic forgetting&lt;/font&gt;&lt;/li&gt;&lt;li data-collapsible=&quot;true&quot;&gt;&lt;font data-font-src=&quot;https://fonts.googleapis.com/css?family=Rubik&quot; face=&quot;Rubik&quot;&gt;Explain how fine-tuning with instructions using prompt datasets can increase LLM performance on one or more tasks&lt;/font&gt;&lt;/li&gt;&lt;/ul&gt;&lt;/div&gt;&lt;/div&gt;&lt;/div&gt;&lt;/div&gt;" style="text;html=1;align=left;verticalAlign=middle;resizable=0;points=[];autosize=1;strokeColor=none;fillColor=none;" vertex="1" parent="1">
          <mxGeometry width="720" height="210" as="geometry" />
        </mxCell>
        <mxCell id="G2og5KNSgikm_XLiq1vp-1" value="Scope" style="shape=step;perimeter=stepPerimeter;whiteSpace=wrap;html=1;fixedSize=1;fontFamily=Rubik;fontSource=https%3A%2F%2Ffonts.googleapis.com%2Fcss%3Ffamily%3DRubik;fillColor=#dae8fc;strokeColor=#6c8ebf;fillStyle=cross-hatch;sketch=1;curveFitting=1;jiggle=2;" vertex="1" parent="1">
          <mxGeometry x="50" y="240" width="120" height="40" as="geometry" />
        </mxCell>
        <mxCell id="G2og5KNSgikm_XLiq1vp-2" value="Select" style="shape=step;perimeter=stepPerimeter;whiteSpace=wrap;html=1;fixedSize=1;fontFamily=Rubik;fontSource=https%3A%2F%2Ffonts.googleapis.com%2Fcss%3Ffamily%3DRubik;fillColor=#f8cecc;strokeColor=#b85450;sketch=1;curveFitting=1;jiggle=2;fillStyle=cross-hatch;" vertex="1" parent="1">
          <mxGeometry x="210" y="240" width="120" height="40" as="geometry" />
        </mxCell>
        <mxCell id="G2og5KNSgikm_XLiq1vp-3" value="Adapt &amp;amp; Align" style="shape=step;perimeter=stepPerimeter;whiteSpace=wrap;html=1;fixedSize=1;fontFamily=Rubik;fontSource=https%3A%2F%2Ffonts.googleapis.com%2Fcss%3Ffamily%3DRubik;fillColor=#fff2cc;strokeColor=#d6b656;fillStyle=cross-hatch;sketch=1;curveFitting=1;jiggle=2;" vertex="1" parent="1">
          <mxGeometry x="370" y="240" width="200" height="40" as="geometry" />
        </mxCell>
        <mxCell id="G2og5KNSgikm_XLiq1vp-4" value="Application Integration" style="shape=step;perimeter=stepPerimeter;whiteSpace=wrap;html=1;fixedSize=1;fontFamily=Rubik;fontSource=https%3A%2F%2Ffonts.googleapis.com%2Fcss%3Ffamily%3DRubik;fillColor=#d5e8d4;strokeColor=#82b366;fillStyle=cross-hatch;sketch=1;curveFitting=1;jiggle=2;" vertex="1" parent="1">
          <mxGeometry x="610" y="240" width="200" height="40" as="geometry" />
        </mxCell>
        <mxCell id="G2og5KNSgikm_XLiq1vp-5" value="Define the Use - Case" style="rounded=1;whiteSpace=wrap;html=1;fontFamily=Rubik;fontSource=https%3A%2F%2Ffonts.googleapis.com%2Fcss%3Ffamily%3DRubik;fillColor=#dae8fc;strokeColor=#6c8ebf;fillStyle=cross-hatch;sketch=1;curveFitting=1;jiggle=2;shadow=0;glass=0;" vertex="1" parent="1">
          <mxGeometry x="40" y="290" width="140" height="190" as="geometry" />
        </mxCell>
        <mxCell id="G2og5KNSgikm_XLiq1vp-6" value="Choose an existing Model or Pre-train your own" style="rounded=1;whiteSpace=wrap;html=1;fontFamily=Rubik;fontSource=https%3A%2F%2Ffonts.googleapis.com%2Fcss%3Ffamily%3DRubik;fillColor=#f8cecc;strokeColor=#b85450;sketch=1;curveFitting=1;jiggle=2;fillStyle=cross-hatch;" vertex="1" parent="1">
          <mxGeometry x="200" y="290" width="140" height="190" as="geometry" />
        </mxCell>
        <mxCell id="G2og5KNSgikm_XLiq1vp-7" value="" style="rounded=1;whiteSpace=wrap;html=1;fontFamily=Rubik;fontSource=https%3A%2F%2Ffonts.googleapis.com%2Fcss%3Ffamily%3DRubik;fillColor=#fff2cc;strokeColor=#d6b656;fillStyle=cross-hatch;sketch=1;curveFitting=1;jiggle=2;" vertex="1" parent="1">
          <mxGeometry x="360" y="290" width="220" height="190" as="geometry" />
        </mxCell>
        <mxCell id="G2og5KNSgikm_XLiq1vp-8" value="" style="rounded=1;whiteSpace=wrap;html=1;fontFamily=Rubik;fontSource=https%3A%2F%2Ffonts.googleapis.com%2Fcss%3Ffamily%3DRubik;fillColor=#d5e8d4;strokeColor=#82b366;fillStyle=cross-hatch;sketch=1;curveFitting=1;jiggle=2;" vertex="1" parent="1">
          <mxGeometry x="600" y="290" width="220" height="190" as="geometry" />
        </mxCell>
        <mxCell id="G2og5KNSgikm_XLiq1vp-9" value="Prompt Engineering" style="rounded=1;whiteSpace=wrap;html=1;fontFamily=Rubik;fontSource=https%3A%2F%2Ffonts.googleapis.com%2Fcss%3Ffamily%3DRubik;fillColor=#fff2cc;strokeColor=#d6b656;fillStyle=cross-hatch;sketch=1;curveFitting=1;jiggle=2;" vertex="1" parent="1">
          <mxGeometry x="370" y="300" width="95" height="50" as="geometry" />
        </mxCell>
        <mxCell id="G2og5KNSgikm_XLiq1vp-10" value="Fine Tuning" style="rounded=1;whiteSpace=wrap;html=1;fontFamily=Rubik;fontSource=https%3A%2F%2Ffonts.googleapis.com%2Fcss%3Ffamily%3DRubik;fillColor=#fff2cc;strokeColor=#d6b656;fillStyle=cross-hatch;sketch=1;curveFitting=1;jiggle=2;" vertex="1" parent="1">
          <mxGeometry x="370" y="360" width="95" height="50" as="geometry" />
        </mxCell>
        <mxCell id="G2og5KNSgikm_XLiq1vp-11" value="Align with Human Feedback" style="rounded=1;whiteSpace=wrap;html=1;fontFamily=Rubik;fontSource=https%3A%2F%2Ffonts.googleapis.com%2Fcss%3Ffamily%3DRubik;fillColor=#fff2cc;strokeColor=#d6b656;fillStyle=cross-hatch;sketch=1;curveFitting=1;jiggle=2;" vertex="1" parent="1">
          <mxGeometry x="370" y="420" width="95" height="50" as="geometry" />
        </mxCell>
        <mxCell id="G2og5KNSgikm_XLiq1vp-12" value="Evaluate" style="rounded=1;whiteSpace=wrap;html=1;fontFamily=Rubik;fontSource=https%3A%2F%2Ffonts.googleapis.com%2Fcss%3Ffamily%3DRubik;fillColor=#fff2cc;strokeColor=#d6b656;fillStyle=cross-hatch;sketch=1;curveFitting=1;jiggle=2;" vertex="1" parent="1">
          <mxGeometry x="480" y="300" width="90" height="170" as="geometry" />
        </mxCell>
        <mxCell id="G2og5KNSgikm_XLiq1vp-13" value="Optimise &amp;amp; Deploy Model for Inference" style="rounded=1;whiteSpace=wrap;html=1;fontFamily=Rubik;fontSource=https%3A%2F%2Ffonts.googleapis.com%2Fcss%3Ffamily%3DRubik;fillColor=#d5e8d4;strokeColor=#82b366;fillStyle=cross-hatch;sketch=1;curveFitting=1;jiggle=2;" vertex="1" parent="1">
          <mxGeometry x="610" y="300" width="90" height="170" as="geometry" />
        </mxCell>
        <mxCell id="G2og5KNSgikm_XLiq1vp-14" value="Augument Model &amp;amp; Build LLM Powered Applications" style="rounded=1;whiteSpace=wrap;html=1;fontFamily=Rubik;fontSource=https%3A%2F%2Ffonts.googleapis.com%2Fcss%3Ffamily%3DRubik;fillColor=#d5e8d4;strokeColor=#82b366;fillStyle=cross-hatch;sketch=1;curveFitting=1;jiggle=2;" vertex="1" parent="1">
          <mxGeometry x="720" y="300" width="90" height="170" as="geometry" />
        </mxCell>
        <mxCell id="G2og5KNSgikm_XLiq1vp-15" value="" style="shape=flexArrow;endArrow=classic;html=1;rounded=0;entryX=0.5;entryY=0;entryDx=0;entryDy=0;exitX=0.5;exitY=0;exitDx=0;exitDy=0;flowAnimation=1;fillColor=#f8cecc;strokeColor=#b85450;fillStyle=dashed;" edge="1" parent="1" source="G2og5KNSgikm_XLiq1vp-12" target="G2og5KNSgikm_XLiq1vp-9">
          <mxGeometry width="50" height="50" relative="1" as="geometry">
            <mxPoint x="530" y="340" as="sourcePoint" />
            <mxPoint x="530" y="230" as="targetPoint" />
            <Array as="points">
              <mxPoint x="510" y="280" />
              <mxPoint x="480" y="280" />
              <mxPoint x="440" y="280" />
            </Array>
          </mxGeometry>
        </mxCell>
        <mxCell id="G2og5KNSgikm_XLiq1vp-16" value="" style="shape=flexArrow;endArrow=classic;html=1;rounded=0;fillColor=#f8cecc;strokeColor=#b85450;fillStyle=dashed;flowAnimation=1;exitX=0.5;exitY=1;exitDx=0;exitDy=0;" edge="1" parent="1" source="G2og5KNSgikm_XLiq1vp-10" target="G2og5KNSgikm_XLiq1vp-12">
          <mxGeometry width="50" height="50" relative="1" as="geometry">
            <mxPoint x="415" y="410" as="sourcePoint" />
            <mxPoint x="465" y="360" as="targetPoint" />
            <Array as="points">
              <mxPoint x="450" y="460" />
              <mxPoint x="490" y="470" />
            </Array>
          </mxGeometry>
        </mxCell>
      </root>
    </mxGraphModel>
  </diagram>
  <diagram id="dT02Qv8WAs8uH5uqffLg" name="Week 2.1 : Instruction Fine - Tuning">
    <mxGraphModel dx="3540" dy="1391" grid="1" gridSize="10" guides="1" tooltips="1" connect="1" arrows="1" fold="1" page="1" pageScale="1" pageWidth="1100" pageHeight="850" math="0" shadow="0">
      <root>
        <mxCell id="0" />
        <mxCell id="1" parent="0" />
        <mxCell id="lLt0yqwQ6SJ-T_8T8hO6-10" value="" style="group" vertex="1" connectable="0" parent="1">
          <mxGeometry x="40" y="120" width="465" height="450" as="geometry" />
        </mxCell>
        <mxCell id="lLt0yqwQ6SJ-T_8T8hO6-1" value="" style="rounded=1;whiteSpace=wrap;html=1;fillColor=#f5f5f5;strokeColor=#666666;fontColor=#333333;" vertex="1" parent="lLt0yqwQ6SJ-T_8T8hO6-10">
          <mxGeometry width="465" height="449.99999999999994" as="geometry" />
        </mxCell>
        <mxCell id="lLt0yqwQ6SJ-T_8T8hO6-2" value="Adapt &amp;amp; Align" style="shape=step;perimeter=stepPerimeter;whiteSpace=wrap;html=1;fixedSize=1;fontFamily=Rubik;fontSource=https%3A%2F%2Ffonts.googleapis.com%2Fcss%3Ffamily%3DRubik;fillColor=#fff2cc;strokeColor=#d6b656;fillStyle=cross-hatch;sketch=1;curveFitting=1;jiggle=2;" vertex="1" parent="lLt0yqwQ6SJ-T_8T8hO6-10">
          <mxGeometry x="47.44897959183674" y="45" width="379.5918367346939" height="59.99999999999999" as="geometry" />
        </mxCell>
        <mxCell id="lLt0yqwQ6SJ-T_8T8hO6-3" value="" style="rounded=1;whiteSpace=wrap;html=1;fontFamily=Rubik;fontSource=https%3A%2F%2Ffonts.googleapis.com%2Fcss%3Ffamily%3DRubik;fillColor=#fff2cc;strokeColor=#d6b656;fillStyle=cross-hatch;sketch=1;curveFitting=1;jiggle=2;" vertex="1" parent="lLt0yqwQ6SJ-T_8T8hO6-10">
          <mxGeometry x="28.46938775510204" y="119.99999999999999" width="417.5510204081633" height="284.99999999999994" as="geometry" />
        </mxCell>
        <mxCell id="lLt0yqwQ6SJ-T_8T8hO6-4" value="Prompt Engineering" style="rounded=1;whiteSpace=wrap;html=1;fontFamily=Rubik;fontSource=https%3A%2F%2Ffonts.googleapis.com%2Fcss%3Ffamily%3DRubik;fillColor=#fff2cc;strokeColor=#d6b656;fillStyle=cross-hatch;sketch=1;curveFitting=1;jiggle=2;" vertex="1" parent="lLt0yqwQ6SJ-T_8T8hO6-10">
          <mxGeometry x="47.44897959183674" y="135" width="180.30612244897958" height="74.99999999999999" as="geometry" />
        </mxCell>
        <mxCell id="lLt0yqwQ6SJ-T_8T8hO6-5" value="Fine Tuning" style="rounded=1;whiteSpace=wrap;html=1;fontFamily=Rubik;fontSource=https%3A%2F%2Ffonts.googleapis.com%2Fcss%3Ffamily%3DRubik;fillColor=#fff2cc;strokeColor=#d6b656;fillStyle=cross-hatch;sketch=1;curveFitting=1;jiggle=2;" vertex="1" parent="lLt0yqwQ6SJ-T_8T8hO6-10">
          <mxGeometry x="47.44897959183674" y="224.99999999999997" width="180.30612244897958" height="74.99999999999999" as="geometry" />
        </mxCell>
        <mxCell id="lLt0yqwQ6SJ-T_8T8hO6-6" value="Align with Human Feedback" style="rounded=1;whiteSpace=wrap;html=1;fontFamily=Rubik;fontSource=https%3A%2F%2Ffonts.googleapis.com%2Fcss%3Ffamily%3DRubik;fillColor=#fff2cc;strokeColor=#d6b656;fillStyle=cross-hatch;sketch=1;curveFitting=1;jiggle=2;" vertex="1" parent="lLt0yqwQ6SJ-T_8T8hO6-10">
          <mxGeometry x="47.44897959183674" y="315" width="180.30612244897958" height="74.99999999999999" as="geometry" />
        </mxCell>
        <mxCell id="lLt0yqwQ6SJ-T_8T8hO6-7" value="Evaluate" style="rounded=1;whiteSpace=wrap;html=1;fontFamily=Rubik;fontSource=https%3A%2F%2Ffonts.googleapis.com%2Fcss%3Ffamily%3DRubik;fillColor=#fff2cc;strokeColor=#d6b656;fillStyle=cross-hatch;sketch=1;curveFitting=1;jiggle=2;" vertex="1" parent="lLt0yqwQ6SJ-T_8T8hO6-10">
          <mxGeometry x="256.2244897959184" y="135" width="170.81632653061223" height="254.99999999999997" as="geometry" />
        </mxCell>
        <mxCell id="lLt0yqwQ6SJ-T_8T8hO6-8" value="" style="shape=flexArrow;endArrow=classic;html=1;rounded=0;entryX=0.5;entryY=0;entryDx=0;entryDy=0;exitX=0.5;exitY=0;exitDx=0;exitDy=0;flowAnimation=1;fillColor=#f8cecc;strokeColor=#b85450;fillStyle=dashed;" edge="1" parent="lLt0yqwQ6SJ-T_8T8hO6-10" source="lLt0yqwQ6SJ-T_8T8hO6-7" target="lLt0yqwQ6SJ-T_8T8hO6-4">
          <mxGeometry width="50" height="50" relative="1" as="geometry">
            <mxPoint x="351.12244897959187" y="194.99999999999997" as="sourcePoint" />
            <mxPoint x="351.12244897959187" y="29.999999999999996" as="targetPoint" />
            <Array as="points">
              <mxPoint x="313.16326530612247" y="104.99999999999999" />
              <mxPoint x="256.2244897959184" y="104.99999999999999" />
              <mxPoint x="180.30612244897958" y="104.99999999999999" />
            </Array>
          </mxGeometry>
        </mxCell>
        <mxCell id="lLt0yqwQ6SJ-T_8T8hO6-9" value="" style="shape=flexArrow;endArrow=classic;html=1;rounded=0;fillColor=#f8cecc;strokeColor=#b85450;fillStyle=dashed;flowAnimation=1;exitX=0.5;exitY=1;exitDx=0;exitDy=0;" edge="1" parent="lLt0yqwQ6SJ-T_8T8hO6-10" source="lLt0yqwQ6SJ-T_8T8hO6-5" target="lLt0yqwQ6SJ-T_8T8hO6-7">
          <mxGeometry width="50" height="50" relative="1" as="geometry">
            <mxPoint x="132.85714285714286" y="299.99999999999994" as="sourcePoint" />
            <mxPoint x="227.75510204081633" y="224.99999999999997" as="targetPoint" />
            <Array as="points">
              <mxPoint x="199.2857142857143" y="374.99999999999994" />
              <mxPoint x="275.2040816326531" y="389.99999999999994" />
            </Array>
          </mxGeometry>
        </mxCell>
        <mxCell id="lLt0yqwQ6SJ-T_8T8hO6-13" value="" style="whiteSpace=wrap;html=1;fillColor=none;strokeWidth=5;strokeColor=#FF9999;sketch=1;curveFitting=1;jiggle=2;rounded=1;shadow=0;" vertex="1" parent="lLt0yqwQ6SJ-T_8T8hO6-10">
          <mxGeometry x="40" y="210" width="200" height="100" as="geometry" />
        </mxCell>
        <mxCell id="lLt0yqwQ6SJ-T_8T8hO6-11" value="&lt;font data-font-src=&quot;https://fonts.googleapis.com/css?family=Rubik&quot; face=&quot;Rubik&quot; style=&quot;font-size: 24px;&quot;&gt;GenAI Project Lifecycle&lt;/font&gt;" style="text;html=1;align=center;verticalAlign=middle;resizable=0;points=[];autosize=1;strokeColor=none;fillColor=none;" vertex="1" parent="1">
          <mxGeometry x="132.5" y="40" width="280" height="40" as="geometry" />
        </mxCell>
        <mxCell id="lLt0yqwQ6SJ-T_8T8hO6-17" value="" style="edgeStyle=orthogonalEdgeStyle;rounded=0;orthogonalLoop=1;jettySize=auto;html=1;" edge="1" parent="1" source="lLt0yqwQ6SJ-T_8T8hO6-14" target="lLt0yqwQ6SJ-T_8T8hO6-16">
          <mxGeometry relative="1" as="geometry" />
        </mxCell>
        <mxCell id="lLt0yqwQ6SJ-T_8T8hO6-23" value="" style="edgeStyle=orthogonalEdgeStyle;rounded=0;orthogonalLoop=1;jettySize=auto;html=1;" edge="1" parent="1" source="lLt0yqwQ6SJ-T_8T8hO6-14" target="lLt0yqwQ6SJ-T_8T8hO6-22">
          <mxGeometry relative="1" as="geometry" />
        </mxCell>
        <mxCell id="lLt0yqwQ6SJ-T_8T8hO6-14" value="Types of Fine Tuning" style="whiteSpace=wrap;html=1;" vertex="1" parent="1">
          <mxGeometry x="520" y="760" width="120" height="40" as="geometry" />
        </mxCell>
        <mxCell id="lLt0yqwQ6SJ-T_8T8hO6-15" style="edgeStyle=orthogonalEdgeStyle;rounded=0;orthogonalLoop=1;jettySize=auto;html=1;exitX=0.5;exitY=1;exitDx=0;exitDy=0;" edge="1" parent="1" source="lLt0yqwQ6SJ-T_8T8hO6-13" target="lLt0yqwQ6SJ-T_8T8hO6-14">
          <mxGeometry relative="1" as="geometry">
            <Array as="points">
              <mxPoint x="180" y="640" />
              <mxPoint x="580" y="640" />
            </Array>
          </mxGeometry>
        </mxCell>
        <mxCell id="lLt0yqwQ6SJ-T_8T8hO6-19" value="" style="edgeStyle=orthogonalEdgeStyle;rounded=0;orthogonalLoop=1;jettySize=auto;html=1;" edge="1" parent="1" source="lLt0yqwQ6SJ-T_8T8hO6-16" target="lLt0yqwQ6SJ-T_8T8hO6-18">
          <mxGeometry relative="1" as="geometry" />
        </mxCell>
        <mxCell id="lLt0yqwQ6SJ-T_8T8hO6-21" value="" style="edgeStyle=orthogonalEdgeStyle;rounded=0;orthogonalLoop=1;jettySize=auto;html=1;" edge="1" parent="1" source="lLt0yqwQ6SJ-T_8T8hO6-16" target="lLt0yqwQ6SJ-T_8T8hO6-20">
          <mxGeometry relative="1" as="geometry" />
        </mxCell>
        <mxCell id="lLt0yqwQ6SJ-T_8T8hO6-16" value="Intrstruction Fine Tuning" style="ellipse;whiteSpace=wrap;html=1;" vertex="1" parent="1">
          <mxGeometry x="80" y="920" width="80" height="80" as="geometry" />
        </mxCell>
        <mxCell id="lLt0yqwQ6SJ-T_8T8hO6-98" style="rounded=0;orthogonalLoop=1;jettySize=auto;html=1;entryX=0.5;entryY=1;entryDx=0;entryDy=0;dashed=1;dashPattern=8 8;jumpStyle=arc;" edge="1" parent="1" source="lLt0yqwQ6SJ-T_8T8hO6-18" target="lLt0yqwQ6SJ-T_8T8hO6-85">
          <mxGeometry relative="1" as="geometry" />
        </mxCell>
        <UserObject label="Fine Tuning on a Single Task" tooltip="Fine-tuning on a single task refers to the process of taking a pre-trained language model and training it further on a specific task of interest. Here is a detailed and structured explanation of fine-tuning on a single task:&#xa;&#xa;1. Introduction:&#xa;   - Fine-tuning is a technique used to improve the performance of a pre-trained language model on a specific task.&#xa;   - Pre-trained language models, such as Large Language Models (LLMs), have been trained on a large corpus of text data to learn the patterns and structures of language.&#xa;&#xa;2. Purpose of fine-tuning on a single task:&#xa;   - While LLMs are capable of performing multiple language tasks, sometimes we only need the model to perform a single task for our application.&#xa;   - Fine-tuning allows us to focus the model&#39;s learning on the specific task of interest, such as summarization or sentiment analysis.&#xa;&#xa;3. Benefits of fine-tuning on a single task:&#xa;   - Fine-tuning with a relatively small dataset of task-specific examples can result in good performance.&#xa;   - Even with just 500-1,000 examples, the model can achieve good results compared to the billions of pieces of text it saw during pre-training.&#xa;&#xa;4. Potential downside: Catastrophic forgetting:&#xa;   - Fine-tuning on a single task can lead to a phenomenon called catastrophic forgetting.&#xa;   - Catastrophic forgetting occurs because the full fine-tuning process modifies the weights of the original LLM, which can degrade performance on other tasks.&#xa;&#xa;5. Avoiding catastrophic forgetting:&#xa;   - If maintaining the model&#39;s multitask generalized capabilities is important, there are options to avoid catastrophic forgetting.&#xa;   - One option is to perform multitask fine-tuning, where the model is fine-tuned on multiple tasks simultaneously. This requires more data and compute resources.&#xa;   - Another option is parameter efficient fine-tuning (PEFT), which preserves most of the pre-trained weights and trains only a small number of task-specific adapter layers and parameters.&#xa;&#xa;6. Conclusion:&#xa;   - Fine-tuning on a single task allows us to improve the performance of a pre-trained language model on a specific task of interest.&#xa;   - However, it is important to be aware of the potential downside of catastrophic forgetting and consider options to avoid it if necessary.&#xa;&#xa;Remember, this explanation is based on the course content and may not cover all possible aspects of fine-tuning on a single task. If you have any specific questions or need further clarification, feel free to ask!" id="lLt0yqwQ6SJ-T_8T8hO6-18">
          <mxCell style="whiteSpace=wrap;html=1;" vertex="1" parent="1">
            <mxGeometry x="-360" y="1120" width="120" height="40" as="geometry" />
          </mxCell>
        </UserObject>
        <mxCell id="lLt0yqwQ6SJ-T_8T8hO6-101" value="" style="edgeStyle=orthogonalEdgeStyle;rounded=0;orthogonalLoop=1;jettySize=auto;html=1;" edge="1" parent="1" source="lLt0yqwQ6SJ-T_8T8hO6-20" target="lLt0yqwQ6SJ-T_8T8hO6-100">
          <mxGeometry relative="1" as="geometry" />
        </mxCell>
        <mxCell id="lLt0yqwQ6SJ-T_8T8hO6-20" value="Multi Task Instruction Fine Tuning" style="whiteSpace=wrap;html=1;" vertex="1" parent="1">
          <mxGeometry x="60" y="1120" width="120" height="40" as="geometry" />
        </mxCell>
        <mxCell id="lLt0yqwQ6SJ-T_8T8hO6-22" value="Parameter Efficient Fine Tuning" style="ellipse;whiteSpace=wrap;html=1;" vertex="1" parent="1">
          <mxGeometry x="1080" y="920" width="80" height="80" as="geometry" />
        </mxCell>
        <mxCell id="lLt0yqwQ6SJ-T_8T8hO6-27" value="" style="edgeStyle=orthogonalEdgeStyle;rounded=0;orthogonalLoop=1;jettySize=auto;html=1;" edge="1" parent="1" source="lLt0yqwQ6SJ-T_8T8hO6-24" target="lLt0yqwQ6SJ-T_8T8hO6-26">
          <mxGeometry relative="1" as="geometry">
            <Array as="points">
              <mxPoint x="1120" y="383" />
              <mxPoint x="1120" y="120" />
            </Array>
          </mxGeometry>
        </mxCell>
        <mxCell id="lLt0yqwQ6SJ-T_8T8hO6-24" value="Model Evaluation " style="whiteSpace=wrap;html=1;" vertex="1" parent="1">
          <mxGeometry x="880" y="352.5" width="120" height="60" as="geometry" />
        </mxCell>
        <mxCell id="lLt0yqwQ6SJ-T_8T8hO6-25" style="edgeStyle=orthogonalEdgeStyle;rounded=0;orthogonalLoop=1;jettySize=auto;html=1;exitX=1;exitY=0.5;exitDx=0;exitDy=0;" edge="1" parent="1" source="lLt0yqwQ6SJ-T_8T8hO6-7" target="lLt0yqwQ6SJ-T_8T8hO6-24">
          <mxGeometry relative="1" as="geometry" />
        </mxCell>
        <mxCell id="lLt0yqwQ6SJ-T_8T8hO6-26" value="Benchmarks" style="ellipse;whiteSpace=wrap;html=1;" vertex="1" parent="1">
          <mxGeometry x="1200" y="80" width="80" height="80" as="geometry" />
        </mxCell>
        <mxCell id="lLt0yqwQ6SJ-T_8T8hO6-78" value="" style="group" vertex="1" connectable="0" parent="1">
          <mxGeometry x="-1080" y="1560" width="960" height="520" as="geometry" />
        </mxCell>
        <mxCell id="lLt0yqwQ6SJ-T_8T8hO6-74" value="" style="whiteSpace=wrap;html=1;fillColor=#f5f5f5;fontColor=#333333;strokeColor=#666666;" vertex="1" parent="lLt0yqwQ6SJ-T_8T8hO6-78">
          <mxGeometry width="960" height="520" as="geometry" />
        </mxCell>
        <UserObject label="&lt;font data-font-src=&quot;https://fonts.googleapis.com/css?family=Rubik&quot; face=&quot;Rubik&quot; style=&quot;font-size: 20px;&quot;&gt;LLM Fine - Tuning&lt;/font&gt;" tooltip="The flow of fine-tuning on a single task involves several steps to improve the performance of a pre-trained language model on a specific task. Here is a detailed explanation of the flow:&#xa;&#xa;1. Pre-training:&#xa;   - The process begins with pre-training a language model on a large corpus of text data.&#xa;   - During pre-training, the model learns the patterns and structures of language by predicting missing words or generating coherent text.&#xa;&#xa;2. Selecting a specific task:&#xa;   - Identify the specific task you want the language model to perform, such as sentiment analysis, summarization, or named entity recognition.&#xa;   - Determine the dataset that contains examples of the task you want the model to learn.&#xa;&#xa;3. Fine-tuning setup:&#xa;   - Prepare the dataset for fine-tuning by organizing it into training, validation, and test sets.&#xa;   - The training set contains examples of the specific task, while the validation set is used to tune hyperparameters and monitor the model&#39;s performance.&#xa;   - The test set is used to evaluate the final performance of the fine-tuned model.&#xa;&#xa;4. Fine-tuning process:&#xa;   - Initialize the pre-trained language model with its learned weights from pre-training.&#xa;   - Fine-tuning involves training the model on the task-specific dataset using techniques like gradient descent and backpropagation.&#xa;   - The model&#39;s weights are updated during training to optimize its performance on the specific task.&#xa;&#xa;5. Evaluating performance:&#xa;   - After fine-tuning, evaluate the performance of the model on the validation set.&#xa;   - Metrics such as accuracy, precision, recall, or F1 score can be used to assess the model&#39;s performance.&#xa;   - Iterate and adjust hyperparameters or fine-tuning techniques if necessary to improve performance.&#xa;&#xa;6. Testing and deployment:&#xa;   - Once satisfied with the model&#39;s performance, evaluate it on the test set to get a final measure of its effectiveness.&#xa;   - If the model meets the desired performance criteria, it can be deployed for real-world applications.&#xa;&#xa;It&#39;s important to note that fine-tuning on a single task may lead to catastrophic forgetting, where the model&#39;s performance on other tasks may degrade. To avoid this, alternative approaches like multitask fine-tuning or parameter efficient fine-tuning (PEFT) can be considered." id="lLt0yqwQ6SJ-T_8T8hO6-55">
          <mxCell style="text;html=1;align=center;verticalAlign=middle;resizable=0;points=[];autosize=1;strokeColor=none;fillColor=none;" vertex="1" parent="lLt0yqwQ6SJ-T_8T8hO6-78">
            <mxGeometry x="40" y="40" width="190" height="40" as="geometry" />
          </mxCell>
        </UserObject>
        <mxCell id="lLt0yqwQ6SJ-T_8T8hO6-56" value="Prepared Instruction Dataset" style="text;html=1;align=center;verticalAlign=middle;resizable=0;points=[];autosize=1;strokeColor=none;fillColor=none;enumerate=1;" vertex="1" parent="lLt0yqwQ6SJ-T_8T8hO6-78">
          <mxGeometry x="40" y="130" width="180" height="30" as="geometry" />
        </mxCell>
        <mxCell id="lLt0yqwQ6SJ-T_8T8hO6-75" style="edgeStyle=orthogonalEdgeStyle;rounded=0;orthogonalLoop=1;jettySize=auto;html=1;flowAnimation=1;" edge="1" parent="lLt0yqwQ6SJ-T_8T8hO6-78" source="lLt0yqwQ6SJ-T_8T8hO6-57" target="lLt0yqwQ6SJ-T_8T8hO6-65">
          <mxGeometry relative="1" as="geometry" />
        </mxCell>
        <mxCell id="lLt0yqwQ6SJ-T_8T8hO6-57" value="" style="pointerEvents=1;shadow=0;dashed=0;html=1;strokeColor=none;fillColor=#505050;labelPosition=center;verticalLabelPosition=bottom;verticalAlign=top;outlineConnect=0;align=center;shape=mxgraph.office.concepts.documents;" vertex="1" parent="lLt0yqwQ6SJ-T_8T8hO6-78">
          <mxGeometry x="97" y="173" width="46" height="54" as="geometry" />
        </mxCell>
        <mxCell id="lLt0yqwQ6SJ-T_8T8hO6-60" value="Pre trained LLM" style="text;html=1;align=center;verticalAlign=middle;resizable=0;points=[];autosize=1;strokeColor=none;fillColor=none;enumerate=1;" vertex="1" parent="lLt0yqwQ6SJ-T_8T8hO6-78">
          <mxGeometry x="350" y="130" width="110" height="30" as="geometry" />
        </mxCell>
        <mxCell id="lLt0yqwQ6SJ-T_8T8hO6-77" style="edgeStyle=orthogonalEdgeStyle;rounded=0;orthogonalLoop=1;jettySize=auto;html=1;entryX=0;entryY=0.5;entryDx=0;entryDy=0;flowAnimation=1;" edge="1" parent="lLt0yqwQ6SJ-T_8T8hO6-78" source="lLt0yqwQ6SJ-T_8T8hO6-61" target="lLt0yqwQ6SJ-T_8T8hO6-64">
          <mxGeometry relative="1" as="geometry" />
        </mxCell>
        <mxCell id="lLt0yqwQ6SJ-T_8T8hO6-61" value="" style="shape=image;html=1;verticalAlign=top;verticalLabelPosition=bottom;labelBackgroundColor=#ffffff;imageAspect=0;aspect=fixed;image=https://cdn4.iconfinder.com/data/icons/success-filloutline/64/brain-think-brainstorm-creative-idea-128.png;sketch=1;curveFitting=1;jiggle=2;" vertex="1" parent="lLt0yqwQ6SJ-T_8T8hO6-78">
          <mxGeometry x="370" y="160" width="80" height="80" as="geometry" />
        </mxCell>
        <mxCell id="lLt0yqwQ6SJ-T_8T8hO6-62" value="LLM Completion - LLM Output" style="text;html=1;align=center;verticalAlign=middle;resizable=0;points=[];autosize=1;strokeColor=none;fillColor=none;enumerate=1;enumerateValue=3.1;" vertex="1" parent="lLt0yqwQ6SJ-T_8T8hO6-78">
          <mxGeometry x="640" y="90" width="180" height="30" as="geometry" />
        </mxCell>
        <mxCell id="lLt0yqwQ6SJ-T_8T8hO6-63" value="Label Data - Expected" style="text;html=1;align=center;verticalAlign=middle;resizable=0;points=[];autosize=1;strokeColor=none;fillColor=none;enumerate=1;enumerateValue=3.2;" vertex="1" parent="lLt0yqwQ6SJ-T_8T8hO6-78">
          <mxGeometry x="640" y="250" width="140" height="30" as="geometry" />
        </mxCell>
        <mxCell id="lLt0yqwQ6SJ-T_8T8hO6-69" style="edgeStyle=orthogonalEdgeStyle;rounded=0;orthogonalLoop=1;jettySize=auto;html=1;entryX=1;entryY=0.5;entryDx=0;entryDy=0;flowAnimation=1;" edge="1" parent="lLt0yqwQ6SJ-T_8T8hO6-78" source="lLt0yqwQ6SJ-T_8T8hO6-64" target="lLt0yqwQ6SJ-T_8T8hO6-68">
          <mxGeometry relative="1" as="geometry">
            <Array as="points">
              <mxPoint x="920" y="160" />
              <mxPoint x="920" y="460" />
            </Array>
          </mxGeometry>
        </mxCell>
        <mxCell id="lLt0yqwQ6SJ-T_8T8hO6-64" value="&lt;div align=&quot;left&quot;&gt;Classify this Review&lt;/div&gt;&lt;div align=&quot;left&quot;&gt;&lt;font color=&quot;#9999ff&quot;&gt;I loved this DVD!&lt;/font&gt;&lt;br&gt;&lt;br&gt;Sentiment: &lt;font color=&quot;#9999ff&quot;&gt;Neutral&lt;/font&gt;&lt;br&gt;&lt;/div&gt;" style="whiteSpace=wrap;html=1;align=left;sketch=1;curveFitting=1;jiggle=2;fillColor=#fff2cc;strokeColor=#d6b656;disableMultiStrokeFill=1;" vertex="1" parent="lLt0yqwQ6SJ-T_8T8hO6-78">
          <mxGeometry x="640" y="120" width="160" height="80" as="geometry" />
        </mxCell>
        <mxCell id="lLt0yqwQ6SJ-T_8T8hO6-76" style="edgeStyle=orthogonalEdgeStyle;rounded=0;orthogonalLoop=1;jettySize=auto;html=1;entryX=0;entryY=0.5;entryDx=0;entryDy=0;flowAnimation=1;" edge="1" parent="lLt0yqwQ6SJ-T_8T8hO6-78" source="lLt0yqwQ6SJ-T_8T8hO6-65" target="lLt0yqwQ6SJ-T_8T8hO6-61">
          <mxGeometry relative="1" as="geometry" />
        </mxCell>
        <mxCell id="lLt0yqwQ6SJ-T_8T8hO6-65" value="&lt;div align=&quot;left&quot;&gt;Classify this Review&lt;/div&gt;&lt;div align=&quot;left&quot;&gt;&lt;font color=&quot;#9999ff&quot;&gt;I loved this DVD!&lt;/font&gt;&lt;br&gt;&lt;br&gt;Sentiment:&lt;br&gt;&lt;/div&gt;" style="whiteSpace=wrap;html=1;align=left;sketch=1;curveFitting=1;jiggle=2;fillColor=#fff2cc;strokeColor=#d6b656;" vertex="1" parent="lLt0yqwQ6SJ-T_8T8hO6-78">
          <mxGeometry x="40" y="280" width="160" height="80" as="geometry" />
        </mxCell>
        <mxCell id="lLt0yqwQ6SJ-T_8T8hO6-70" style="edgeStyle=orthogonalEdgeStyle;rounded=0;orthogonalLoop=1;jettySize=auto;html=1;entryX=1;entryY=0.5;entryDx=0;entryDy=0;flowAnimation=1;" edge="1" parent="lLt0yqwQ6SJ-T_8T8hO6-78" source="lLt0yqwQ6SJ-T_8T8hO6-67" target="lLt0yqwQ6SJ-T_8T8hO6-68">
          <mxGeometry relative="1" as="geometry">
            <Array as="points">
              <mxPoint x="920" y="320" />
              <mxPoint x="920" y="460" />
            </Array>
          </mxGeometry>
        </mxCell>
        <mxCell id="lLt0yqwQ6SJ-T_8T8hO6-67" value="&lt;div align=&quot;left&quot;&gt;Classify this Review&lt;/div&gt;&lt;div align=&quot;left&quot;&gt;&lt;font color=&quot;#9999ff&quot;&gt;I loved this DVD!&lt;/font&gt;&lt;br&gt;&lt;br&gt;Sentiment: &lt;font color=&quot;#9999ff&quot;&gt;Positive&lt;/font&gt;&lt;br&gt;&lt;/div&gt;" style="whiteSpace=wrap;html=1;align=left;sketch=1;curveFitting=1;jiggle=2;fillColor=#fff2cc;strokeColor=#d6b656;" vertex="1" parent="lLt0yqwQ6SJ-T_8T8hO6-78">
          <mxGeometry x="640" y="280" width="160" height="80" as="geometry" />
        </mxCell>
        <mxCell id="lLt0yqwQ6SJ-T_8T8hO6-71" style="edgeStyle=orthogonalEdgeStyle;rounded=0;orthogonalLoop=1;jettySize=auto;html=1;entryX=0.5;entryY=1;entryDx=0;entryDy=0;flowAnimation=1;" edge="1" parent="lLt0yqwQ6SJ-T_8T8hO6-78" source="lLt0yqwQ6SJ-T_8T8hO6-68" target="lLt0yqwQ6SJ-T_8T8hO6-61">
          <mxGeometry relative="1" as="geometry" />
        </mxCell>
        <mxCell id="lLt0yqwQ6SJ-T_8T8hO6-72" value="&lt;font style=&quot;font-size: 13px;&quot;&gt;Update Model Weight in Standard Back Propogation&lt;/font&gt;" style="edgeLabel;html=1;align=center;verticalAlign=middle;resizable=0;points=[];enumerate=1;enumerateValue=5;" vertex="1" connectable="0" parent="lLt0yqwQ6SJ-T_8T8hO6-71">
          <mxGeometry x="-0.4113" y="-3" relative="1" as="geometry">
            <mxPoint x="-14" y="3" as="offset" />
          </mxGeometry>
        </mxCell>
        <mxCell id="lLt0yqwQ6SJ-T_8T8hO6-68" value="Loss : Cross Entropy Function to calculate the loss" style="whiteSpace=wrap;html=1;sketch=1;curveFitting=1;jiggle=2;enumerate=1;enumerateValue=4;fillColor=#dae8fc;strokeColor=#6c8ebf;" vertex="1" parent="lLt0yqwQ6SJ-T_8T8hO6-78">
          <mxGeometry x="720" y="440" width="120" height="40" as="geometry" />
        </mxCell>
        <mxCell id="lLt0yqwQ6SJ-T_8T8hO6-80" value="" style="group;movable=1;resizable=1;rotatable=1;deletable=1;editable=1;locked=0;connectable=1;" vertex="1" connectable="0" parent="1">
          <mxGeometry x="-1080" y="1280" width="895" height="240" as="geometry" />
        </mxCell>
        <mxCell id="lLt0yqwQ6SJ-T_8T8hO6-79" value="" style="whiteSpace=wrap;html=1;movable=1;resizable=1;rotatable=1;deletable=1;editable=1;locked=0;connectable=1;" vertex="1" parent="lLt0yqwQ6SJ-T_8T8hO6-80">
          <mxGeometry width="880" height="240" as="geometry" />
        </mxCell>
        <mxCell id="lLt0yqwQ6SJ-T_8T8hO6-41" style="edgeStyle=orthogonalEdgeStyle;rounded=0;orthogonalLoop=1;jettySize=auto;html=1;movable=1;resizable=1;rotatable=1;deletable=1;editable=1;locked=0;connectable=1;flowAnimation=1;" edge="1" parent="lLt0yqwQ6SJ-T_8T8hO6-80" source="lLt0yqwQ6SJ-T_8T8hO6-33" target="lLt0yqwQ6SJ-T_8T8hO6-31">
          <mxGeometry relative="1" as="geometry" />
        </mxCell>
        <mxCell id="lLt0yqwQ6SJ-T_8T8hO6-33" value="" style="whiteSpace=wrap;html=1;movable=1;resizable=1;rotatable=1;deletable=1;editable=1;locked=0;connectable=1;" vertex="1" parent="lLt0yqwQ6SJ-T_8T8hO6-80">
          <mxGeometry x="360" y="40" width="280" height="120" as="geometry" />
        </mxCell>
        <mxCell id="lLt0yqwQ6SJ-T_8T8hO6-40" style="edgeStyle=orthogonalEdgeStyle;rounded=0;orthogonalLoop=1;jettySize=auto;html=1;movable=1;resizable=1;rotatable=1;deletable=1;editable=1;locked=0;connectable=1;flowAnimation=1;" edge="1" parent="lLt0yqwQ6SJ-T_8T8hO6-80" source="lLt0yqwQ6SJ-T_8T8hO6-29" target="lLt0yqwQ6SJ-T_8T8hO6-33">
          <mxGeometry relative="1" as="geometry" />
        </mxCell>
        <mxCell id="lLt0yqwQ6SJ-T_8T8hO6-29" value="" style="sketch=0;pointerEvents=1;shadow=0;dashed=0;html=1;strokeColor=none;fillColor=#505050;labelPosition=center;verticalLabelPosition=bottom;verticalAlign=top;outlineConnect=0;align=center;shape=mxgraph.office.concepts.documents;movable=1;resizable=1;rotatable=1;deletable=1;editable=1;locked=0;connectable=1;" vertex="1" parent="lLt0yqwQ6SJ-T_8T8hO6-80">
          <mxGeometry x="240" y="80" width="46" height="54" as="geometry" />
        </mxCell>
        <mxCell id="lLt0yqwQ6SJ-T_8T8hO6-30" value="&lt;div&gt;PROMPT [...], COMPLETION[...]&lt;/div&gt;&lt;div&gt;PROMPT [...], COMPLETION[...]&lt;/div&gt;&lt;div&gt;PROMPT [...], COMPLETION[...]&lt;/div&gt;&lt;div&gt;PROMPT [...], COMPLETION[...]&lt;/div&gt;&lt;div&gt;PROMPT [...], COMPLETION[...]&lt;/div&gt;" style="text;html=1;align=center;verticalAlign=middle;resizable=1;points=[];autosize=1;strokeColor=none;fillColor=none;movable=1;rotatable=1;deletable=1;editable=1;locked=0;connectable=1;" vertex="1" parent="lLt0yqwQ6SJ-T_8T8hO6-80">
          <mxGeometry x="400" y="55" width="200" height="90" as="geometry" />
        </mxCell>
        <mxCell id="lLt0yqwQ6SJ-T_8T8hO6-31" value="" style="sketch=0;outlineConnect=0;fontColor=#232F3E;gradientColor=none;fillColor=#01A88D;strokeColor=none;dashed=0;verticalLabelPosition=bottom;verticalAlign=top;align=center;html=1;fontSize=12;fontStyle=0;aspect=fixed;pointerEvents=1;shape=mxgraph.aws4.sagemaker_model;movable=1;resizable=1;rotatable=1;deletable=1;editable=1;locked=0;connectable=1;" vertex="1" parent="lLt0yqwQ6SJ-T_8T8hO6-80">
          <mxGeometry x="760" y="60" width="80" height="80" as="geometry" />
        </mxCell>
        <mxCell id="lLt0yqwQ6SJ-T_8T8hO6-39" style="edgeStyle=orthogonalEdgeStyle;rounded=0;orthogonalLoop=1;jettySize=auto;html=1;movable=1;resizable=1;rotatable=1;deletable=1;editable=1;locked=0;connectable=1;flowAnimation=1;" edge="1" parent="lLt0yqwQ6SJ-T_8T8hO6-80" source="lLt0yqwQ6SJ-T_8T8hO6-32" target="lLt0yqwQ6SJ-T_8T8hO6-29">
          <mxGeometry relative="1" as="geometry" />
        </mxCell>
        <mxCell id="lLt0yqwQ6SJ-T_8T8hO6-32" value="" style="shape=image;html=1;verticalAlign=top;verticalLabelPosition=bottom;labelBackgroundColor=#ffffff;imageAspect=0;aspect=fixed;image=https://cdn4.iconfinder.com/data/icons/success-filloutline/64/brain-think-brainstorm-creative-idea-128.png;movable=1;resizable=1;rotatable=1;deletable=1;editable=1;locked=0;connectable=1;" vertex="1" parent="lLt0yqwQ6SJ-T_8T8hO6-80">
          <mxGeometry x="40" y="67" width="80" height="80" as="geometry" />
        </mxCell>
        <mxCell id="lLt0yqwQ6SJ-T_8T8hO6-34" value="&lt;div&gt;Full Fine Tuning &lt;br&gt;&lt;/div&gt;&lt;div&gt;Updates all parameters&lt;br&gt;&lt;/div&gt;" style="text;html=1;align=center;verticalAlign=middle;resizable=1;points=[];autosize=1;strokeColor=none;fillColor=none;movable=1;rotatable=1;deletable=1;editable=1;locked=0;connectable=1;" vertex="1" parent="lLt0yqwQ6SJ-T_8T8hO6-80">
          <mxGeometry x="5" y="147" width="150" height="40" as="geometry" />
        </mxCell>
        <mxCell id="lLt0yqwQ6SJ-T_8T8hO6-35" value="Pre-Trained LLM" style="text;html=1;align=center;verticalAlign=middle;resizable=1;points=[];autosize=1;strokeColor=none;fillColor=none;movable=1;rotatable=1;deletable=1;editable=1;locked=0;connectable=1;" vertex="1" parent="lLt0yqwQ6SJ-T_8T8hO6-80">
          <mxGeometry x="25" y="27" width="110" height="30" as="geometry" />
        </mxCell>
        <mxCell id="lLt0yqwQ6SJ-T_8T8hO6-36" value="Task Specific Examples" style="text;html=1;align=center;verticalAlign=middle;resizable=1;points=[];autosize=1;strokeColor=none;fillColor=none;movable=1;rotatable=1;deletable=1;editable=1;locked=0;connectable=1;" vertex="1" parent="lLt0yqwQ6SJ-T_8T8hO6-80">
          <mxGeometry x="425" y="10" width="150" height="30" as="geometry" />
        </mxCell>
        <mxCell id="lLt0yqwQ6SJ-T_8T8hO6-37" value="Update Model (&lt;font color=&quot;#ff0000&quot;&gt;Instruct&lt;/font&gt; Model)" style="text;html=1;align=center;verticalAlign=middle;resizable=1;points=[];autosize=1;strokeColor=none;fillColor=none;movable=1;rotatable=1;deletable=1;editable=1;locked=0;connectable=1;" vertex="1" parent="lLt0yqwQ6SJ-T_8T8hO6-80">
          <mxGeometry x="710" y="30" width="180" height="30" as="geometry" />
        </mxCell>
        <mxCell id="lLt0yqwQ6SJ-T_8T8hO6-38" value="Datasets are assembled and converted into the format of instruction as Prompt &amp;amp; Completion" style="text;html=1;align=center;verticalAlign=middle;resizable=1;points=[];autosize=1;strokeColor=none;fillColor=none;movable=1;rotatable=1;deletable=1;editable=1;locked=0;connectable=1;" vertex="1" parent="lLt0yqwQ6SJ-T_8T8hO6-80">
          <mxGeometry x="240" y="180" width="520" height="30" as="geometry" />
        </mxCell>
        <UserObject label="&lt;font style=&quot;font-size: 20px;&quot; face=&quot;Rubik&quot; data-font-src=&quot;https://fonts.googleapis.com/css?family=Rubik&quot;&gt;LLM Fine - Tuning&lt;/font&gt;" link="&lt;font style=&quot;font-size: 20px;&quot; face=&quot;Rubik&quot; data-font-src=&quot;https://fonts.googleapis.com/css?family=Rubik&quot;&gt;LLM Fine - Tuning&lt;/font&gt;" tooltip="The flow of fine-tuning on a single task involves several steps to improve the performance of a pre-trained language model on a specific task. Here is a detailed explanation of the flow:&#xa;&#xa;1. Pre-training:&#xa;   - The process begins with pre-training a language model on a large corpus of text data.&#xa;   - During pre-training, the model learns the patterns and structures of language by predicting missing words or generating coherent text.&#xa;&#xa;2. Selecting a specific task:&#xa;   - Identify the specific task you want the language model to perform, such as sentiment analysis, summarization, or named entity recognition.&#xa;   - Determine the dataset that contains examples of the task you want the model to learn.&#xa;&#xa;3. Fine-tuning setup:&#xa;   - Prepare the dataset for fine-tuning by organizing it into training, validation, and test sets.&#xa;   - The training set contains examples of the specific task, while the validation set is used to tune hyperparameters and monitor the model&#39;s performance.&#xa;   - The test set is used to evaluate the final performance of the fine-tuned model.&#xa;&#xa;4. Fine-tuning process:&#xa;   - Initialize the pre-trained language model with its learned weights from pre-training.&#xa;   - Fine-tuning involves training the model on the task-specific dataset using techniques like gradient descent and backpropagation.&#xa;   - The model&#39;s weights are updated during training to optimize its performance on the specific task.&#xa;&#xa;5. Evaluating performance:&#xa;   - After fine-tuning, evaluate the performance of the model on the validation set.&#xa;   - Metrics such as accuracy, precision, recall, or F1 score can be used to assess the model&#39;s performance.&#xa;   - Iterate and adjust hyperparameters or fine-tuning techniques if necessary to improve performance.&#xa;&#xa;6. Testing and deployment:&#xa;   - Once satisfied with the model&#39;s performance, evaluate it on the test set to get a final measure of its effectiveness.&#xa;   - If the model meets the desired performance criteria, it can be deployed for real-world applications.&#xa;&#xa;It&#39;s important to note that fine-tuning on a single task may lead to catastrophic forgetting, where the model&#39;s performance on other tasks may degrade. To avoid this, alternative approaches like multitask fine-tuning or parameter efficient fine-tuning (PEFT) can be considered." id="lLt0yqwQ6SJ-T_8T8hO6-81">
          <mxCell style="text;whiteSpace=wrap;html=1;" vertex="1" parent="1">
            <mxGeometry x="-1080" y="1240" width="200" height="50" as="geometry" />
          </mxCell>
        </UserObject>
        <mxCell id="lLt0yqwQ6SJ-T_8T8hO6-86" value="" style="edgeStyle=orthogonalEdgeStyle;rounded=0;orthogonalLoop=1;jettySize=auto;html=1;" edge="1" parent="1" source="lLt0yqwQ6SJ-T_8T8hO6-82" target="lLt0yqwQ6SJ-T_8T8hO6-85">
          <mxGeometry relative="1" as="geometry">
            <Array as="points">
              <mxPoint x="-500" y="380" />
              <mxPoint x="-500" y="200" />
            </Array>
          </mxGeometry>
        </mxCell>
        <mxCell id="lLt0yqwQ6SJ-T_8T8hO6-82" value="Disadvantages of Single Task Fine Tuning" style="whiteSpace=wrap;html=1;" vertex="1" parent="1">
          <mxGeometry x="-440" y="350" width="120" height="60" as="geometry" />
        </mxCell>
        <mxCell id="lLt0yqwQ6SJ-T_8T8hO6-83" style="edgeStyle=orthogonalEdgeStyle;rounded=0;orthogonalLoop=1;jettySize=auto;html=1;entryX=1;entryY=0.5;entryDx=0;entryDy=0;" edge="1" parent="1" source="lLt0yqwQ6SJ-T_8T8hO6-13" target="lLt0yqwQ6SJ-T_8T8hO6-82">
          <mxGeometry relative="1" as="geometry" />
        </mxCell>
        <mxCell id="lLt0yqwQ6SJ-T_8T8hO6-88" value="" style="edgeStyle=orthogonalEdgeStyle;rounded=0;orthogonalLoop=1;jettySize=auto;html=1;" edge="1" parent="1" source="lLt0yqwQ6SJ-T_8T8hO6-85" target="lLt0yqwQ6SJ-T_8T8hO6-87">
          <mxGeometry relative="1" as="geometry" />
        </mxCell>
        <mxCell id="lLt0yqwQ6SJ-T_8T8hO6-85" value="Catastrophic Forgetting" style="ellipse;whiteSpace=wrap;html=1;" vertex="1" parent="1">
          <mxGeometry x="-640" y="160" width="80" height="80" as="geometry" />
        </mxCell>
        <mxCell id="lLt0yqwQ6SJ-T_8T8hO6-90" value="" style="edgeStyle=orthogonalEdgeStyle;rounded=0;orthogonalLoop=1;jettySize=auto;html=1;" edge="1" parent="1" source="lLt0yqwQ6SJ-T_8T8hO6-87" target="lLt0yqwQ6SJ-T_8T8hO6-89">
          <mxGeometry relative="1" as="geometry">
            <Array as="points">
              <mxPoint x="-820" y="280" />
              <mxPoint x="-960" y="280" />
            </Array>
          </mxGeometry>
        </mxCell>
        <mxCell id="lLt0yqwQ6SJ-T_8T8hO6-92" value="" style="edgeStyle=orthogonalEdgeStyle;rounded=0;orthogonalLoop=1;jettySize=auto;html=1;" edge="1" parent="1" source="lLt0yqwQ6SJ-T_8T8hO6-87" target="lLt0yqwQ6SJ-T_8T8hO6-91">
          <mxGeometry relative="1" as="geometry">
            <Array as="points">
              <mxPoint x="-820" y="280" />
              <mxPoint x="-680" y="280" />
            </Array>
          </mxGeometry>
        </mxCell>
        <mxCell id="lLt0yqwQ6SJ-T_8T8hO6-96" value="" style="edgeStyle=orthogonalEdgeStyle;rounded=0;orthogonalLoop=1;jettySize=auto;html=1;" edge="1" parent="1" source="lLt0yqwQ6SJ-T_8T8hO6-87" target="lLt0yqwQ6SJ-T_8T8hO6-95">
          <mxGeometry relative="1" as="geometry" />
        </mxCell>
        <mxCell id="lLt0yqwQ6SJ-T_8T8hO6-87" value="Solutions" style="whiteSpace=wrap;html=1;" vertex="1" parent="1">
          <mxGeometry x="-880" y="180" width="120" height="40" as="geometry" />
        </mxCell>
        <mxCell id="lLt0yqwQ6SJ-T_8T8hO6-97" style="rounded=0;orthogonalLoop=1;jettySize=auto;html=1;exitX=1;exitY=1;exitDx=0;exitDy=0;entryX=0;entryY=0.5;entryDx=0;entryDy=0;dashed=1;dashPattern=8 8;startArrow=none;startFill=0;endArrow=none;endFill=0;" edge="1" parent="1" source="lLt0yqwQ6SJ-T_8T8hO6-89" target="lLt0yqwQ6SJ-T_8T8hO6-20">
          <mxGeometry relative="1" as="geometry" />
        </mxCell>
        <mxCell id="lLt0yqwQ6SJ-T_8T8hO6-89" value="Multi Task Fine Tuning" style="ellipse;whiteSpace=wrap;html=1;" vertex="1" parent="1">
          <mxGeometry x="-1000" y="330" width="80" height="80" as="geometry" />
        </mxCell>
        <mxCell id="lLt0yqwQ6SJ-T_8T8hO6-99" style="rounded=0;orthogonalLoop=1;jettySize=auto;html=1;entryX=0;entryY=0.5;entryDx=0;entryDy=0;endArrow=none;endFill=0;dashed=1;dashPattern=8 8;" edge="1" parent="1" source="lLt0yqwQ6SJ-T_8T8hO6-91" target="lLt0yqwQ6SJ-T_8T8hO6-22">
          <mxGeometry relative="1" as="geometry" />
        </mxCell>
        <mxCell id="lLt0yqwQ6SJ-T_8T8hO6-91" value="PEFT" style="ellipse;whiteSpace=wrap;html=1;" vertex="1" parent="1">
          <mxGeometry x="-720" y="330" width="80" height="80" as="geometry" />
        </mxCell>
        <mxCell id="lLt0yqwQ6SJ-T_8T8hO6-95" value="&lt;div&gt;You may not require&amp;nbsp;&lt;/div&gt;&lt;div&gt;if your model need to&amp;nbsp;&lt;/div&gt;&lt;div&gt;perform only one task&lt;/div&gt;" style="shape=trapezoid;perimeter=trapezoidPerimeter;whiteSpace=wrap;html=1;fixedSize=1;" vertex="1" parent="1">
          <mxGeometry x="-900" y="60" width="160" height="60" as="geometry" />
        </mxCell>
        <mxCell id="lLt0yqwQ6SJ-T_8T8hO6-100" value="Examples :&lt;br&gt;&lt;div&gt;FLAN - T5&lt;/div&gt;&lt;div&gt;FLAN-PALM&lt;br&gt;&lt;/div&gt;" style="whiteSpace=wrap;html=1;" vertex="1" parent="1">
          <mxGeometry x="260" y="1110" width="120" height="60" as="geometry" />
        </mxCell>
      </root>
    </mxGraphModel>
  </diagram>
</mxfile>
